<?xml version="1.0" encoding="UTF-8"?>
<svg width="20px" height="20px" viewBox="0 0 20 20" version="1.1" xmlns="http://www.w3.org/2000/svg" xmlns:xlink="http://www.w3.org/1999/xlink">
    <!-- Generator: Sketch 43.2 (39069) - http://www.bohemiancoding.com/sketch -->
    <title>icon-chrome</title>
    <desc>Created with Sketch.</desc>
    <defs></defs>
    <g id="Icons-" stroke="none" stroke-width="1" fill="none" fill-rule="evenodd">
        <g id="icon-chrome" fill="#000105">
            <path d="M13.8587852,6.31578947 L19.3260928,6.31578947 C19.7753643,7.48883619 20,8.71426298 20,9.99106895 C20,12.7278443 19.075894,15.0736041 17.2289601,17.028682 C15.3813872,18.9834262 13.147492,19.9736431 10.5263158,20 L14.4579203,12.9233521 C15.0318119,12.0375617 15.3193967,11.0600228 15.3193967,9.99106895 C15.3193967,8.55779003 14.8324197,7.33236324 13.8587852,6.31578947 Z M7.40502845,12.5949716 C6.67853107,11.8688122 6.31578947,11.0040471 6.31578947,10 C6.31578947,8.99662903 6.67853107,8.13186389 7.40502845,7.40502845 C8.13118776,6.67886913 8.9959529,6.31578947 10,6.31578947 C11.003371,6.31578947 11.8681361,6.67886913 12.5949716,7.40502845 C13.3207928,8.13186389 13.6842105,8.99662903 13.6842105,10 C13.6842105,11.0040471 13.3207928,11.8688122 12.5949716,12.5949716 C11.8681361,13.3214689 11.003371,13.6842105 10,13.6842105 C8.9959529,13.6842105 8.13118776,13.3214689 7.40502845,12.5949716 Z M5.0323908,8.42105263 L2.10526316,3.6251805 C3.06751274,2.49219076 4.24363359,1.60474657 5.63396789,0.962847942 C7.02396,0.320949314 8.52105883,0 10.1252644,0 C11.9700324,0 13.6741586,0.428254657 15.2379852,1.28379726 C16.8021541,2.13998433 18.0381589,3.29810866 18.9473684,4.75817025 L10.5663525,4.75817025 C10.4325546,4.73303567 10.2857534,4.72014614 10.1252644,4.72014614 C8.92211022,4.72014614 7.84591003,5.06655227 6.89700602,5.75872007 C5.94775981,6.45153234 5.32633547,7.33865429 5.0323908,8.42105263 Z M11.5789474,15.0620596 L8.67419414,20 C6.20710624,19.637004 4.14440888,18.5294348 2.48678114,16.6756333 C0.828813868,14.8224955 0,12.6511555 0,10.1626088 C0,8.42626673 0.437665332,6.79311644 1.312996,5.26315789 L5.45129318,12.3402531 C5.87537697,13.1956495 6.51201195,13.8954289 7.36119814,14.4399229 C8.20970525,14.9840852 9.15158549,15.2564981 10.1861598,15.2564981 C10.6635511,15.2564981 11.127361,15.1917959 11.5789474,15.0620596 L11.5789474,15.0620596 Z" id="Fill-1"></path>
        </g>
    </g>
</svg>