<?xml version="1.0" encoding="UTF-8"?>
<svg width="20px" height="20px" viewBox="0 0 20 20" version="1.1" xmlns="http://www.w3.org/2000/svg" xmlns:xlink="http://www.w3.org/1999/xlink">
    <!-- Generator: Sketch 43.2 (39069) - http://www.bohemiancoding.com/sketch -->
    <title>icon-safari</title>
    <desc>Created with Sketch.</desc>
    <defs></defs>
    <g id="Icons-" stroke="none" stroke-width="1" fill="none" fill-rule="evenodd">
        <g id="icon-safari" fill="#000105">
            <path d="M11.7415822,11.3673333 C11.9,11.003 11.93952,10.625 11.86048,10.2343333 C11.8337956,10.1306667 11.7942756,10.0133333 11.7415822,9.88266667 L10.6728533,11.289 L9.24776889,12.3436667 C9.40618667,12.422 9.57744,12.4743333 9.76254222,12.5 L10,12.5 C10.1317333,12.5 10.2631289,12.487 10.3958756,12.461 C10.6066489,12.409 10.8045867,12.331 10.9896889,12.2266667 C11.3318578,12.0186667 11.5831644,11.732 11.7415822,11.3673333 Z M8.41683556,9.60933333 C8.12567111,10.0523333 8.03379556,10.521 8.13952,11.0156667 C8.16519111,11.12 8.20471111,11.237 8.25841778,11.3673333 L9.32714667,9.961 L10.7522311,8.90633333 C10.5938133,8.828 10.4215467,8.77633333 10.2374578,8.75 L10,8.75 C9.86725333,8.75 9.73585778,8.76333333 9.60412444,8.789 C9.10252444,8.89333333 8.70664889,9.16666667 8.41683556,9.60933333 Z M7.46666667,1.25 C7.57171556,1.09366667 7.71020444,0.996 7.88213333,0.957 C8.05338667,0.918 8.21889778,0.951 8.37697778,1.05466667 C8.56106667,0.924666667 8.64044444,0.781333333 8.61443556,0.625 C8.56106667,0.416666667 8.35029333,0.312666667 7.98110222,0.312666667 C7.90206222,0.312666667 7.82302222,0.326 7.74364444,0.351666667 C7.53185778,0.377666667 7.36094222,0.456 7.22920889,0.586 C7.09646222,0.716333333 7.04410667,0.833666667 7.07079111,0.937666667 C7.12314667,1.09366667 7.25488,1.198 7.46666667,1.25 Z M11.97904,9.60933333 L11.97904,9.64833333 L14.3542933,9.72666667 L12.2168356,10.703 C12.2168356,10.99 12.1502933,11.276 12.0188978,11.5626667 L12.9292089,12.5 L11.6625422,12.0703333 C11.47744,12.279 11.2528178,12.448 10.9896889,12.578 L10.9103111,14.922 L9.92096,12.8126667 C9.57744,12.7866667 9.26094222,12.7086667 8.97079111,12.578 L5.09175111,15.4686667 L8.02096,11.6406667 L8.02096,11.6016667 L5.64570667,11.5233333 L7.78350222,10.547 C7.78350222,10.2606667 7.84869333,9.97433333 7.98110222,9.68766667 L7.07079111,8.75 L8.33745778,9.17966667 C8.52154667,8.97166667 8.74616889,8.80233333 9.01031111,8.672 L9.08968889,6.328 L10.07904,8.43766667 C10.4215467,8.46366667 10.7380444,8.54166667 11.0292089,8.672 L14.9082489,5.78133333 L11.97904,9.60933333 Z M17.2041244,10.625 C17.2041244,10.3126667 17.17744,10 17.1250844,9.68766667 L15.5415822,9.453 L16.9271467,8.63266667 C16.5836267,7.461 15.9769778,6.44533333 15.1061867,5.586 C13.6811022,4.206 11.97904,3.51566667 10,3.51566667 C9.68316444,3.51566667 9.36666667,3.542 9.04983111,3.59366667 L8.81237333,5.15633333 L7.98110222,3.789 C6.79381333,4.12766667 5.76460444,4.72666667 4.89381333,5.586 C3.4944,6.99233333 2.79587556,8.672 2.79587556,10.625 C2.79587556,10.9376667 2.82154667,11.25 2.87491556,11.5626667 L4.45841778,11.797 L3.07285333,12.6173333 C3.41536,13.789 4.02302222,14.8046667 4.89381333,15.664 C6.31889778,17.0446667 8.02096,17.7343333 10,17.7343333 C10.3164978,17.7343333 10.6333333,17.7086667 10.9501689,17.6563333 L11.1876267,16.0936667 L12.0188978,17.461 C13.2061867,17.1226667 14.2353956,16.5233333 15.1061867,15.664 C16.5045867,14.2576667 17.2041244,12.578 17.2041244,10.625 Z M16.70928,4.004 C18.56976,5.84 19.5,8.047 19.5,10.625 C19.5,13.203 18.56976,15.4103333 16.70928,17.246 C14.8488,19.082 12.6123733,20 10,20 C7.38762667,20 5.15086222,19.082 3.29072,17.246 C1.43024,15.4103333 0.5,13.203 0.5,10.625 C0.5,8.51566667 1.14616889,6.62766667 2.43952,4.961 C3.73185778,3.29466667 5.38156444,2.17466667 7.38762667,1.60166667 L7.38762667,1.56266667 C7.04410667,1.48433333 6.84616889,1.30233333 6.79381333,1.01566667 C6.74044444,0.807333333 6.79955556,0.605333333 6.97182222,0.41 C7.14307556,0.215 7.37377778,0.0913333333 7.66460444,0.039 C7.76931556,0.0133333333 7.87537778,0 7.98110222,0 C8.50871111,0 8.81237333,0.195333333 8.89175111,0.586 C8.97079111,0.846666667 8.86506667,1.081 8.57491556,1.289 C8.57491556,1.31533333 8.58775111,1.34133333 8.61443556,1.36733333 C9.06300444,1.289 9.52508444,1.25 10,1.25 C12.6123733,1.25 14.8488,2.168 16.70928,4.004 L16.70928,4.004 Z" id="Fill-1"></path>
        </g>
    </g>
</svg>