<?xml version="1.0" encoding="UTF-8"?>
<svg width="20px" height="20px" viewBox="0 0 20 20" version="1.1" xmlns="http://www.w3.org/2000/svg" xmlns:xlink="http://www.w3.org/1999/xlink">
    <!-- Generator: Sketch 43.2 (39069) - http://www.bohemiancoding.com/sketch -->
    <title>icon-edge</title>
    <desc>Created with Sketch.</desc>
    <defs></defs>
    <g id="Icons-" stroke="none" stroke-width="1" fill="none" fill-rule="evenodd">
        <g id="icon-edge" fill="#000105">
            <path d="M14.3209313,1.84322904 C16.0764139,2.57915179 17.4758134,3.76742076 18.5184275,5.40839812 C19.1494741,3.65406258 19.121732,2.42342011 18.4362545,1.71574636 C17.6956438,0.924049939 16.3232841,0.966423443 14.3209313,1.84322904 Z M14.7735852,9.10068771 C14.7184521,8.08191276 14.3209313,7.21198832 13.5803206,6.49055224 C12.8393588,5.76911616 11.9681141,5.40839812 10.9669377,5.40839812 C9.96541007,5.40839812 9.09451653,5.76911616 8.35390585,6.49055224 C7.61329517,7.21198832 7.21507208,8.08191276 7.16064123,9.10068771 L14.7735852,9.10068771 Z M6.29641985,18.5228168 C4.45806191,17.3627968 3.1685776,15.7363061 2.42796692,13.6415339 C1.19326462,16.1317922 1.02891858,17.8437542 1.93422647,18.7770578 C2.72961916,19.5977276 4.18344951,19.5126184 6.29641985,18.5228168 Z M7.16064123,11.5623348 L7.16064123,11.6043462 C7.16064123,12.2834087 7.3109406,12.9345845 7.61329517,13.5571491 C7.96937826,14.2079626 8.45679771,14.7240502 9.07414886,15.1057739 C9.69150001,15.4878598 10.3769775,15.6787216 11.1316349,15.6787216 C11.8862922,15.6787216 12.5721209,15.4878598 13.189472,15.1057739 C13.806472,14.7240502 14.2931891,14.2079626 14.6503257,13.5571491 L19.5473461,13.5571491 C18.9159482,15.3965938 17.8189033,16.9028451 16.2551578,18.0769896 C14.6914122,19.251134 12.9352273,19.8382063 10.9876565,19.8382063 C9.53347497,19.8382063 8.16181764,19.5126184 6.87233333,18.862167 C3.99171246,20.3054013 1.9201798,20.3752995 0.658437659,19.0740345 C0.21947922,18.6502995 0,17.9426257 0,16.9524619 C0,15.9622982 0.185064878,14.8587762 0.555545801,13.6415339 C0.926026724,12.4257403 1.54337787,11.0886208 2.40724808,9.63126194 C3.27146946,8.17426527 4.2933647,6.85127028 5.47328499,5.66300131 C6.15876249,4.92744073 6.59807209,4.47437018 6.79016031,4.30487616 C5.0887574,5.15343276 3.55275403,6.46918441 2.18109669,8.25176894 C2.67483715,6.18669437 3.7378189,4.48885685 5.37039313,3.15898069 C7.00226503,1.82910454 8.87503731,1.16416647 10.9876565,1.16416647 C11.2071357,1.16416647 11.4262638,1.17865313 11.6460941,1.20653997 C13.1824487,0.499590557 14.5811459,0.103018011 15.8435903,0.0182710016 C17.1053325,-0.0668381748 17.9969448,0.145391516 18.5184275,0.654960074 C19.5606904,1.75811987 19.6569101,3.4842064 18.8067354,5.83249533 C19.6017769,7.27572967 20,8.83196001 20,10.5011864 C20,10.8973967 19.9859533,11.2512336 19.9589135,11.5623348 L7.16064123,11.5623348 L7.16064123,11.5623348 Z" id="Fill-1"></path>
        </g>
    </g>
</svg>