<?xml version="1.0" encoding="UTF-8"?>
<svg width="20px" height="20px" viewBox="0 0 20 20" version="1.1" xmlns="http://www.w3.org/2000/svg" xmlns:xlink="http://www.w3.org/1999/xlink">
    <!-- Generator: Sketch 43.2 (39069) - http://www.bohemiancoding.com/sketch -->
    <title>icon-opera</title>
    <desc>Created with Sketch.</desc>
    <defs></defs>
    <g id="Icons-" stroke="none" stroke-width="1" fill="none" fill-rule="evenodd">
        <g id="icon-opera" fill="#000105">
            <path d="M13.3506657,6.914 C13.2719531,6.107 13.1141916,5.31933333 12.8777176,4.55066667 C12.6412435,3.783 12.2796367,3.19033333 11.7935699,2.77333333 C11.3071666,2.357 10.6963034,2.14833333 9.96064372,2.14833333 C9.22464769,2.14833333 8.620512,2.35033333 8.14722753,2.754 C7.67427944,3.158 7.32579137,3.75 7.10277247,4.53133333 C6.87941718,5.31266667 6.72838326,6.09366667 6.64933432,6.875 C6.57062177,7.65633333 6.53126549,8.607 6.53126549,9.72666667 C6.53126549,10.4296667 6.54438425,11.022 6.57062177,11.504 C6.59652291,11.986 6.64294313,12.572 6.70853693,13.2616667 C6.77379435,13.9516667 6.87941718,14.5313333 7.02405991,15 C7.16802988,15.4686667 7.36514765,15.9313333 7.61507684,16.3866667 C7.86466964,16.8426667 8.18692019,17.1873333 8.58081935,17.422 C8.97505488,17.6563333 9.43488421,17.7733333 9.96064372,17.7733333 C10.4860669,17.7733333 10.9522874,17.6563333 11.359978,17.422 C11.766996,17.1873333 12.0956377,16.8426667 12.3455669,16.3866667 C12.5948233,15.9313333 12.7986686,15.4686667 12.9564301,15 C13.1141916,14.5313333 13.2325968,13.9516667 13.3113094,13.2616667 C13.390022,12.572 13.4357694,11.9793333 13.4492246,11.4843333 C13.4620069,10.99 13.4690709,10.404 13.4690709,9.72666667 C13.4690709,8.659 13.4293782,7.72166667 13.3506657,6.914 Z M16.7998902,2.73433333 C18.5998513,4.55733333 19.5,6.953 19.5,9.922 C19.5,12.6306667 18.5998513,14.9873333 16.7998902,16.9923333 C14.9992564,18.997 12.7199561,20 9.96064372,20 C7.22723249,20 4.96744211,18.997 3.18059982,16.9923333 C1.39308477,14.9873333 0.5,12.6306667 0.5,9.922 C0.5,6.953 1.38030239,4.55733333 3.14124354,2.73433333 C4.90151193,0.911666667 7.17509383,0 9.96064372,0 C12.7199561,0 14.9992564,0.911666667 16.7998902,2.73433333 L16.7998902,2.73433333 Z" id="Fill-1"></path>
        </g>
    </g>
</svg>