<?xml version="1.0" encoding="UTF-8"?>
<svg width="43px" height="37px" viewBox="0 0 43 37" version="1.1" xmlns="http://www.w3.org/2000/svg" xmlns:xlink="http://www.w3.org/1999/xlink">
    <!-- Generator: Sketch 43.2 (39069) - http://www.bohemiancoding.com/sketch -->
    <title>icon-layernotes</title>
    <desc>Created with Sketch.</desc>
    <defs>
        <filter x="-5.9%" y="-8.0%" width="111.8%" height="116.0%" filterUnits="objectBoundingBox" id="filter-1">
            <feGaussianBlur stdDeviation="0.746205357" in="SourceGraphic"></feGaussianBlur>
        </filter>
        <polygon id="path-2" points="10 0 40 0 40 22.0458558 32.367002 22.0458558 26.5151515 29 26.5151515 22.0458558 10 22.0458558"></polygon>
    </defs>
    <g id="Icons-" stroke="none" stroke-width="1" fill="none" fill-rule="evenodd">
        <g id="icon-layernotes" transform="translate(1.000000, 2.000000)">
            <polygon id="Rectangle-Copy-2" fill-opacity="0.5" fill="#9B9B9B" filter="url(#filter-1)" points="3.55271368e-15 1 30.0573204 1 38 22.884278 30.3908376 22.884278 26.7090264 29 24.4893863 22.884278 7.94267961 22.884278"></polygon>
            <g id="Rectangle-Copy">
                <use fill="#319BF5" fill-rule="evenodd" xlink:href="#path-2"></use>
                <path stroke="#FFFFFF" stroke-width="2" d="M25.5151515,23.0458558 L25.5151515,29 L25.5151515,31.7414975 L27.2802942,29.6438608 L32.8324567,23.0458558 L40,23.0458558 L41,23.0458558 L41,22.0458558 L41,0 L41,-1 L40,-1 L10,-1 L9,-1 L9,0 L9,22.0458558 L9,23.0458558 L10,23.0458558 L25.5151515,23.0458558 Z"></path>
            </g>
            <rect id="Rectangle-2" fill="#FFFFFF" x="16" y="6" width="15" height="2"></rect>
            <rect id="Rectangle-2-Copy" fill="#FFFFFF" x="16" y="14" width="8" height="2"></rect>
        </g>
    </g>
</svg>
