<?xml version="1.0" encoding="UTF-8"?>
<svg width="20px" height="18px" viewBox="0 0 20 18" version="1.1" xmlns="http://www.w3.org/2000/svg" xmlns:xlink="http://www.w3.org/1999/xlink">
    <!-- Generator: Sketch 43.2 (39069) - http://www.bohemiancoding.com/sketch -->
    <title>icon-firefox</title>
    <desc>Created with Sketch.</desc>
    <defs></defs>
    <g id="Icons-" stroke="none" stroke-width="1" fill="none" fill-rule="evenodd">
        <g id="icon-firefox" fill="#000105">
            <path d="M20,6.203 C20,6.451 19.9806667,6.93233333 19.9416667,7.64833333 C19.9023333,8.365 19.8176667,9.068 19.6876667,9.75766667 C19.557,10.4483333 19.3166667,11.2226667 18.965,12.082 C18.613,12.9413333 18.1836667,13.7163333 17.6756667,14.4063333 C17.168,15.0963333 16.4713333,15.7476667 15.586,16.3593333 C14.7003333,16.9713333 13.6976667,17.408 12.5783333,17.668 C11.9786667,17.8243333 11.367,17.9153333 10.742,17.9413333 C10.716,17.9413333 10.6643333,17.954 10.586,17.9803333 C10.0646667,18.0063333 9.544,18.0063333 9.02333333,17.9803333 C5.794,17.7203333 3.33333333,16.1316667 1.64066667,13.2146667 C0.859333333,11.8346667 0.416333333,10.5196667 0.312666667,9.26966667 C0.234333333,9.63433333 0.182,9.947 0.156333333,10.207 C0.078,8.72266667 0.195333333,7.51166667 0.507666667,6.57433333 C0.273333333,6.96466667 0.104,7.32966667 0,7.668 C0.208333333,6.496 0.481666667,5.572 0.820333333,4.89466667 C0.846,4.73833333 1.00233333,4.452 1.289,4.035 L1.289,3.918 C1.23666667,3.189 1.30866667,2.53133333 1.504,1.94533333 C1.69933333,1.35933333 1.86166667,0.995 1.99233333,0.851666667 C2.12233333,0.708666667 2.22666667,0.597666667 2.30466667,0.519666667 C2.33033333,1.14466667 2.65633333,1.74366667 3.28133333,2.31633333 C3.43766667,2.34266667 3.58033333,2.35533333 3.711,2.35533333 C4.36166667,2.22533333 5.039,2.23833333 5.74233333,2.39466667 C6.15866667,1.874 6.797,1.52233333 7.65633333,1.34 L8.39833333,1.30066667 C7.643,1.74366667 7.18733333,2.38166667 7.03133333,3.215 C7.31766667,3.814 7.69533333,4.11333333 8.164,4.11333333 L9.02333333,4.11333333 C9.466,4.11333333 9.70033333,4.15233333 9.72666667,4.23033333 L9.72666667,4.30866667 C9.75233333,4.33466667 9.75233333,4.374 9.72666667,4.42566667 L9.72666667,4.504 C9.70033333,4.76433333 9.60933333,4.95966667 9.453,5.08966667 C9.427,5.08966667 9.414,5.09666667 9.414,5.10933333 C9.414,5.12266667 9.40066667,5.129 9.375,5.129 C9.375,5.155 9.25766667,5.23333333 9.02333333,5.36333333 C8.711,5.572 8.46333333,5.741 8.28133333,5.871 C7.94266667,6.07966667 7.77333333,6.22266667 7.77333333,6.30066667 L7.77333333,6.33966667 L7.73433333,6.33966667 C7.81233333,6.496 7.86433333,6.69133333 7.89066667,6.92566667 C7.94266667,7.16 7.95533333,7.30366667 7.92966667,7.35533333 L7.92966667,7.707 C7.61733333,7.55066667 7.31766667,7.447 7.03133333,7.39466667 C6.66633333,7.55066667 6.45833333,7.72033333 6.40633333,7.90233333 C6.38,8.00666667 6.354,8.111 6.328,8.21466667 C6.328,8.70966667 6.67966667,9.16566667 7.38266667,9.582 C7.669,9.76433333 7.962,9.86866667 8.26166667,9.89466667 C8.561,9.921 8.79533333,9.908 8.965,9.85533333 C9.134,9.80333333 9.342,9.72533333 9.59,9.621 C9.837,9.51733333 10.013,9.452 10.1173333,9.42566667 C10.8986667,9.21766667 11.5363333,9.4 12.031,9.97266667 C12.1876667,10.129 12.22,10.279 12.129,10.422 C12.0376667,10.5653333 11.9006667,10.611 11.7186667,10.5586667 C11.6406667,10.5846667 11.588,10.5913333 11.5626667,10.578 C11.5363333,10.5653333 11.4776667,10.578 11.3866667,10.6173333 C11.295,10.6563333 11.2306667,10.6823333 11.1916667,10.6953333 C11.1523333,10.7086667 11.087,10.7476667 10.9963333,10.8126667 C10.9043333,10.878 10.8333333,10.9233333 10.781,10.9493333 C10.7286667,10.9753333 10.6446667,11.034 10.527,11.125 C10.41,11.2163333 10.3126667,11.275 10.2343333,11.3006667 C9.922,11.5353333 9.47266667,11.7046667 8.88666667,11.8086667 C8.30066667,11.9126667 7.81233333,11.9126667 7.422,11.8086667 C7.73433333,12.043 7.98166667,12.2126667 8.164,12.3163333 C8.346,12.421 8.64566667,12.5836667 9.06233333,12.8046667 C9.479,13.0263333 9.837,13.1696667 10.1366667,13.2343333 C10.4356667,13.2996667 10.8136667,13.332 11.2696667,13.332 C11.725,13.332 12.1416667,13.254 12.5196667,13.0976667 C12.8966667,12.9413333 13.3006667,12.6746667 13.7306667,12.297 C14.16,11.9196667 14.57,11.4443333 14.961,10.871 C15.0393333,10.741 15.091,10.6626667 15.117,10.6366667 C15.169,10.6366667 15.1036667,10.9883333 14.9216667,11.6913333 C14.8436667,12.0563333 14.8176667,12.2383333 14.8436667,12.2383333 C15.2863333,11.9256667 15.592,11.3266667 15.7616667,10.4413333 C15.9306667,9.55633333 15.9503333,8.697 15.82,7.86333333 C16.1326667,7.99366667 16.3536667,8.241 16.4843333,8.60533333 L16.5626667,8.68366667 C16.7186667,8.189 16.8096667,7.54466667 16.836,6.75 C16.8613333,5.956 16.7836667,5.29833333 16.6016667,4.77733333 C16.9396667,4.88166667 17.252,5.22033333 17.5393333,5.793 C17.461,5.37666667 17.3436667,4.99233333 17.1876667,4.64066667 C17.031,4.289 16.8556667,3.99 16.66,3.74233333 C16.465,3.495 16.256,3.26066667 16.035,3.039 C15.8136667,2.818 15.586,2.63566667 15.3516667,2.49233333 C15.117,2.34933333 14.889,2.21866667 14.668,2.10166667 C14.4463333,1.98433333 14.238,1.89333333 14.043,1.828 C13.8473333,1.76333333 13.6716667,1.711 13.5156667,1.672 C13.3593333,1.63266667 13.242,1.607 13.1643333,1.59366667 C13.086,1.581 13.0596667,1.57433333 13.086,1.57433333 C13.7363333,1.39233333 14.4006667,1.30066667 15.0783333,1.30066667 C15,1.17066667 14.85,1.05366667 14.629,0.949333333 C14.4073333,0.845333333 14.1663333,0.754 13.906,0.675666667 C13.6456667,0.597666667 13.3916667,0.533 13.1446667,0.480333333 C12.8966667,0.428666667 12.6036667,0.363333333 12.2656667,0.285 L12.2266667,0.285 L12.3046667,0.285 C13.0336667,0.077 14.1796667,0.233333333 15.742,0.754 C16.3146667,0.936333333 16.836,1.26833333 17.3046667,1.75 C17.7736667,2.232 18.0666667,2.59 18.1836667,2.82433333 C18.3006667,3.05866667 18.3853333,3.254 18.4376667,3.41 L18.4376667,3.254 C18.463,3.124 18.4436667,2.922 18.379,2.64833333 C18.3136667,2.375 18.216,2.082 18.086,1.76966667 C18.1113333,1.76966667 18.1506667,1.789 18.2033333,1.828 C18.255,1.86733333 18.3526667,2.01066667 18.4963333,2.25766667 C18.6393333,2.50566667 18.802,2.86333333 18.9843333,3.332 C19.2706667,4.035 19.5176667,5.29833333 19.7266667,7.121 L19.961,5.63666667 C19.9863333,5.76733333 20,5.956 20,6.203" id="Fill-1"></path>
        </g>
    </g>
</svg>